<svg width="22" height="22" viewBox="0 0 22 22" fill="none" xmlns="http://www.w3.org/2000/svg">
<path d="M10.942 1.0057C10.8949 1.01301 10.8488 1.02975 10.8062 1.05503L1.24967 6.84329C1.1045 6.92929 1.00609 7.12028 1.00609 7.31605C1.00609 7.51182 1.1045 7.70281 1.24967 7.78881L10.8062 13.5771C10.9276 13.6518 11.0785 13.6518 11.1999 13.5771L20.7564 7.78881C20.9016 7.70281 21 7.51182 21 7.31605C21 7.12028 20.9016 6.92929 20.7564 6.84329L11.1999 1.05503C11.1207 1.00732 11.0294 0.989844 10.942 1.0057ZM1.43292 10.4692C1.23718 10.4694 1.05163 10.6502 1.00932 10.8817C0.967035 11.1132 1.07233 11.3719 1.24967 11.4722L10.8062 17.2605C10.9276 17.3353 11.0785 17.3353 11.1999 17.2605L20.7564 11.4722C20.9608 11.3474 21.053 11.0086 20.9499 10.761C20.8468 10.5135 20.5671 10.4019 20.3628 10.5267L11.003 16.1999L1.64331 10.5267C1.57863 10.4866 1.50555 10.4666 1.43292 10.4692ZM1.43292 14.1526C1.23718 14.1529 1.05163 14.3336 1.00932 14.5651C0.967035 14.7967 1.07233 15.0554 1.24967 15.1557L10.8062 20.9439C10.9276 21.0187 11.0785 21.0187 11.1999 20.9439L20.7564 15.1557C20.9608 15.0309 21.053 14.692 20.9499 14.4445C20.8468 14.1969 20.5671 14.0853 20.3628 14.2101L11.003 19.8833L1.64331 14.2101C1.57863 14.1701 1.50555 14.1501 1.43292 14.1526Z" fill="#56565A" stroke="#56565A" stroke-width="0.315675"/>
</svg>
